<svg width="200" height="47" viewBox="0 0 200 47" fill="none" xmlns="http://www.w3.org/2000/svg">
<path d="M7.27985 7.21397H11.1497V11.2947H7.27985V25.0718H2.45216V11.2947H0V7.21397H2.45216V5.66611C2.45216 4.61716 2.68205 3.68333 3.12906 2.85184C3.58884 2.02035 4.22742 1.36795 5.03203 0.894636C5.84942 0.434118 6.76898 0.203857 7.79071 0.203857C8.49316 0.203857 9.22114 0.344571 9.9619 0.638791C10.7154 0.920219 11.354 1.29119 11.9032 1.7645L10.6899 4.83462C10.5238 4.64274 10.2812 4.50203 9.9619 4.39969C9.65538 4.29735 9.32331 4.24618 8.96571 4.24618C8.48038 4.24618 8.08446 4.43807 7.7524 4.82183C7.42034 5.2056 7.27985 5.67891 7.27985 6.25456V7.21397Z" fill="#0A0A0A"/>
<path d="M21.4788 11.253C20.5209 11.253 19.678 11.5088 18.9373 12.0333C18.1965 12.545 17.6601 13.2614 17.3408 14.1568H25.3103C25.0421 13.2358 24.5696 12.5194 23.9182 12.0205C23.2413 11.5088 22.4367 11.253 21.4788 11.253ZM21.5171 21.0262C22.2196 21.0262 22.9603 20.8855 23.7266 20.5913C24.5057 20.2843 25.1315 19.9005 25.6168 19.44L28.8353 22.7276C28.069 23.5335 27.0089 24.1987 25.6424 24.7231C24.2886 25.2348 22.922 25.5035 21.5682 25.5035C19.8313 25.5035 18.2348 25.0941 16.7661 24.2882C15.3229 23.4823 14.1734 22.3566 13.3433 20.9367C12.5259 19.5423 12.1172 17.9305 12.1172 16.114C12.1172 14.3615 12.5131 12.7753 13.3177 11.3425C14.1096 9.90982 15.2207 8.7969 16.6384 7.99099C17.9794 7.21067 19.5375 6.8269 21.2872 6.8269C23.1264 6.8269 24.7228 7.27463 26.0511 8.15729C27.3921 9.03995 28.4138 10.3064 29.1163 11.9694C29.8059 13.6579 30.1635 15.6023 30.1635 17.8026H17.2769C17.5707 18.8004 18.0943 19.5935 18.8479 20.1819C19.6014 20.732 20.4954 21.0262 21.5171 21.0262Z" fill="#0A0A0A"/>
<path d="M40.6546 11.253C39.6967 11.253 38.8538 11.5088 38.113 12.0333C37.3723 12.545 36.8359 13.2614 36.5166 14.1568H44.4861C44.2179 13.2358 43.7453 12.5194 43.094 12.0205C42.4171 11.5088 41.6125 11.253 40.6546 11.253ZM40.6929 21.0262C41.3954 21.0262 42.1361 20.8855 42.9024 20.5913C43.6815 20.2843 44.3073 19.9005 44.7926 19.44L48.0111 22.7276C47.2448 23.5335 46.1847 24.1987 44.8182 24.7231C43.4644 25.2348 42.0978 25.5035 40.744 25.5035C39.0071 25.5035 37.4106 25.0941 35.9419 24.2882C34.4987 23.4823 33.3492 22.3566 32.519 20.9367C31.7017 19.5423 31.293 17.9305 31.293 16.114C31.293 14.3615 31.6889 12.7753 32.4935 11.3425C33.2853 9.90982 34.3965 8.7969 35.8141 7.99099C37.1552 7.21067 38.7133 6.8269 40.463 6.8269C42.3021 6.8269 43.8986 7.27463 45.2269 8.15729C46.5679 9.03995 47.5896 10.3064 48.2921 11.9694C48.9817 13.6579 49.3393 15.6023 49.3393 17.8026H36.4399C36.7337 18.8004 37.2573 19.5935 38.0109 20.1819C38.7772 20.732 39.6712 21.0262 40.6929 21.0262Z" fill="#0A0A0A"/>
<path d="M60.1787 21.2508C61.0599 21.2508 61.839 21.0334 62.5414 20.6112C63.2311 20.1763 63.7803 19.5623 64.1762 18.7947C64.5593 18.0272 64.7509 17.1445 64.7509 16.1468C64.7509 15.1746 64.5593 14.3047 64.1634 13.5372C63.7803 12.7568 63.2439 12.1556 62.5414 11.7207C61.8517 11.2985 61.0599 11.0811 60.1787 11.0811C59.2719 11.0811 58.4545 11.2985 57.7265 11.7207C57.0113 12.1428 56.4493 12.744 56.0406 13.5116C55.6319 14.2919 55.4404 15.1745 55.4404 16.1595C55.4404 17.1318 55.6447 18.0144 56.0406 18.8075C56.4493 19.5878 57.0113 20.1891 57.7265 20.6112C58.4417 21.0334 59.2591 21.2508 60.1787 21.2508ZM69.7829 0.924072V25.0757H64.7509V22.5173C64.0485 23.4767 63.18 24.2058 62.1455 24.7303C61.111 25.2548 59.9743 25.5106 58.7482 25.5106C57.1901 25.5106 55.7852 25.1141 54.5208 24.3337C53.2692 23.5406 52.2985 22.4149 51.6089 20.9822C50.9064 19.6006 50.5488 17.9888 50.5488 16.1595C50.5488 14.3686 50.8937 12.7696 51.5961 11.3369C52.2985 9.90418 53.282 8.79126 54.5464 7.99814C55.7852 7.21782 57.1901 6.83405 58.761 6.83405C59.9999 6.83405 61.1238 7.0899 62.1583 7.61438C63.1928 8.12606 64.0612 8.85522 64.7637 9.80184V0.949655H69.7829V0.924072Z" fill="#0A0A0A"/>
<path d="M77.9148 9.44141H72.8828V25.0606H77.9148V9.44141Z" fill="#0A0A0A"/>
<path d="M91.3425 6.79688C92.5941 6.79688 93.7436 7.0911 94.7653 7.67954C95.787 8.26797 96.5789 9.07388 97.1408 10.11C97.7028 11.2102 97.9838 12.4126 97.9838 13.7046V25.0641H93.105V14.7792C93.105 14.05 92.9645 13.3976 92.6835 12.8348C92.4025 12.2719 92.0066 11.837 91.5085 11.5172C90.9977 11.1974 90.3974 11.0439 89.7205 11.0439C89.0308 11.0439 88.405 11.1974 87.8303 11.5044C87.2556 11.8114 86.8086 12.2208 86.4893 12.758C86.17 13.2825 86.0039 13.8709 86.0039 14.4978L85.9656 14.3954V25.0641H80.9336V7.20623H85.9656V9.44485C86.4893 8.61336 87.23 7.96096 88.1751 7.50045C89.133 7.03993 90.1803 6.79688 91.3425 6.79688Z" fill="#0A0A0A"/>
<path d="M109.532 19.4995C110.362 19.4995 111.103 19.3204 111.755 18.9622C112.419 18.604 112.93 18.0924 113.3 17.44C113.657 16.7876 113.836 16.0584 113.836 15.2525C113.836 14.4338 113.657 13.7046 113.3 13.0778C112.942 12.4382 112.431 11.9393 111.767 11.5811C111.116 11.2358 110.375 11.0567 109.532 11.0567C108.702 11.0567 107.961 11.2358 107.31 11.5939C106.659 11.9393 106.148 12.4382 105.777 13.0778C105.407 13.7174 105.215 14.4466 105.215 15.2525C105.215 16.0584 105.407 16.7876 105.777 17.44C106.148 18.0796 106.659 18.5913 107.31 18.9622C107.974 19.3204 108.715 19.4995 109.532 19.4995ZM118.907 7.20623V23.1581C118.907 24.6675 118.498 26.0107 117.693 27.1876C116.901 28.3773 115.765 29.3239 114.296 30.0019C112.815 30.6671 111.154 30.9997 109.328 30.9997C107.821 30.9997 106.365 30.7822 104.947 30.3473C103.542 29.9251 102.38 29.3495 101.461 28.6331L103.21 25.0641C103.785 25.5758 104.551 25.9723 105.535 26.2794C106.505 26.5992 107.514 26.7527 108.536 26.7527C109.596 26.7527 110.516 26.5992 111.32 26.2794C112.125 25.9723 112.751 25.5374 113.185 24.9618C113.619 24.3861 113.836 23.7209 113.836 22.9534V20.9834C113.134 21.8661 112.265 22.5568 111.231 23.0429C110.209 23.5162 109.111 23.7465 107.949 23.7465C106.48 23.7465 105.139 23.3883 103.925 22.672C102.712 21.9428 101.767 20.9322 101.077 19.6402C100.388 18.3866 100.056 16.9155 100.056 15.2525C100.056 13.6407 100.401 12.1952 101.077 10.916C101.767 9.62395 102.712 8.60057 103.938 7.85862C105.113 7.15506 106.454 6.79688 107.949 6.79688C109.111 6.79688 110.222 7.05272 111.282 7.5772C112.342 8.08888 113.198 8.77966 113.836 9.63674V7.20623H118.907Z" fill="#0A0A0A"/>
<path d="M131.575 7.20898H126.543V25.0668H131.575V7.20898Z" fill="#0A0A0A"/>
<path d="M145.009 6.79688C146.261 6.79688 147.41 7.0911 148.432 7.67954C149.454 8.26797 150.246 9.07388 150.808 10.11C151.37 11.2102 151.651 12.4126 151.651 13.7046V25.0641H146.785V14.7792C146.785 14.05 146.644 13.3976 146.363 12.8348C146.082 12.2719 145.686 11.837 145.188 11.5172C144.677 11.1974 144.077 11.0439 143.4 11.0439C142.711 11.0439 142.085 11.1974 141.51 11.5044C140.935 11.8114 140.488 12.2208 140.169 12.758C139.85 13.2825 139.684 13.8709 139.684 14.4978L139.645 14.3954V25.0641H134.613V7.20623H139.645V9.44485C140.169 8.61336 140.91 7.96096 141.855 7.50045C142.8 7.03993 143.86 6.79688 145.009 6.79688Z" fill="#0A0A0A"/>
<path d="M163.364 21.2508C164.246 21.2508 165.025 21.0334 165.727 20.6112C166.417 20.1763 166.966 19.5623 167.362 18.7947C167.745 18.0272 167.937 17.1445 167.937 16.1468C167.937 15.1746 167.745 14.3047 167.349 13.5372C166.966 12.7568 166.429 12.1556 165.727 11.7207C165.037 11.2985 164.246 11.0811 163.364 11.0811C162.457 11.0811 161.64 11.2985 160.912 11.7207C160.197 12.1428 159.635 12.744 159.226 13.5116C158.818 14.2919 158.626 15.1745 158.626 16.1595C158.626 17.1318 158.83 18.0144 159.226 18.8075C159.635 19.5878 160.197 20.1891 160.912 20.6112C161.615 21.0334 162.445 21.2508 163.364 21.2508ZM172.956 0.924072V25.0757H167.924V22.5173C167.221 23.4767 166.353 24.2058 165.318 24.7303C164.284 25.2548 163.147 25.5106 161.921 25.5106C160.363 25.5106 158.958 25.1141 157.694 24.3337C156.442 23.5406 155.471 22.4149 154.782 20.9822C154.079 19.6006 153.722 17.9888 153.722 16.1595C153.722 14.3686 154.067 12.7696 154.769 11.3369C155.471 9.90418 156.455 8.79126 157.719 7.99814C158.958 7.21782 160.363 6.83405 161.934 6.83405C163.173 6.83405 164.297 7.0899 165.331 7.61438C166.366 8.12606 167.234 8.85522 167.937 9.80184V0.949655H172.956V0.924072Z" fill="#0A0A0A"/>
<path d="M181.081 7.20898H176.049V25.0668H181.081V7.20898Z" fill="#0A0A0A"/>
<path d="M191.034 21.994C192.094 21.994 193.001 21.7637 193.767 21.3032C194.534 20.8299 194.981 20.2031 195.134 19.4355V17.7726C193.972 17.3376 192.707 17.1202 191.315 17.1202C190.715 17.1202 190.153 17.2225 189.642 17.44C189.144 17.6574 188.761 17.9516 188.467 18.3482C188.173 18.7448 188.033 19.1669 188.033 19.6274C188.033 20.331 188.314 20.9066 188.876 21.3416C189.425 21.7765 190.153 21.994 191.034 21.994ZM192.171 6.79688C193.716 6.79688 195.096 7.10389 196.283 7.73071C197.471 8.33194 198.391 9.2146 199.042 10.3659C199.681 11.4532 200 12.7964 200 14.3954V25.0641H195.134V23.2732C194.534 23.964 193.755 24.5012 192.81 24.8978C191.864 25.2943 190.894 25.4862 189.898 25.4862C188.62 25.4862 187.471 25.256 186.462 24.7827C185.453 24.3094 184.648 23.6314 184.074 22.7615C183.473 21.8916 183.18 20.9066 183.18 19.7937C183.18 18.6552 183.499 17.6446 184.138 16.7364C184.776 15.8281 185.67 15.1118 186.832 14.6001C187.969 14.0884 189.221 13.8454 190.587 13.8454C192.018 13.8454 193.538 14.1524 195.134 14.7536V14.3954C195.134 13.2953 194.776 12.4254 194.061 11.7986C193.359 11.159 192.35 10.8392 191.047 10.8392C189.591 10.8392 188.046 11.2613 186.411 12.1184L184.725 8.76687C187.305 7.44928 189.783 6.79688 192.171 6.79688Z" fill="#0A0A0A"/>
<path d="M75.4427 6.95894C75.4171 6.95894 75.3788 6.94615 75.3405 6.94615H75.3533C75.3277 6.94615 72.5818 5.84602 71.7517 3.32596C71.6112 2.90382 71.3941 1.49668 72.1987 0.626816C72.5052 0.255843 72.965 0.0127922 73.4886 0C74.306 0.0255843 75.0084 0.447726 75.4427 1.06175L75.4554 1.07454C75.8769 0.434934 76.5921 0.0127922 77.4223 0C77.9459 0.0127922 78.4057 0.243051 78.7122 0.614023V0.626816C79.5168 1.49668 79.2997 2.90382 79.1592 3.32596C78.3291 5.83323 75.5832 6.92056 75.5576 6.94615C75.5065 6.94615 75.481 6.95894 75.4427 6.95894Z" fill="#E23744"/>
<path d="M27.9202 44.3506V37.6431H31.3646C31.8057 37.6431 32.1744 37.7156 32.4705 37.8606C32.7665 38.0056 32.9901 38.202 33.1412 38.4498C33.2923 38.6975 33.3678 38.9755 33.3678 39.2837C33.3678 39.6885 33.2621 40.0088 33.0506 40.2445C32.8391 40.4741 32.5974 40.6282 32.3254 40.7068V40.7883C32.5007 40.8246 32.691 40.9032 32.8965 41.024C33.108 41.1449 33.2862 41.3201 33.4313 41.5497C33.5823 41.7733 33.6579 42.0664 33.6579 42.429C33.6579 42.7492 33.5823 43.0574 33.4313 43.3535C33.2802 43.6436 33.0415 43.8823 32.7152 44.0696C32.3949 44.2569 31.9689 44.3506 31.4371 44.3506H27.9202ZM31.002 39.0843H29.6605V40.2536H31.002C31.2317 40.2536 31.4039 40.2022 31.5187 40.0995C31.6335 39.9907 31.6909 39.8457 31.6909 39.6644C31.6909 39.4891 31.6335 39.3501 31.5187 39.2474C31.4039 39.1387 31.2317 39.0843 31.002 39.0843ZM31.1289 41.5497H29.6605V42.9094H31.1289C31.3948 42.9094 31.5912 42.8459 31.7181 42.719C31.845 42.5921 31.9085 42.4259 31.9085 42.2205C31.9085 42.015 31.845 41.8519 31.7181 41.731C31.5912 41.6102 31.3948 41.5497 31.1289 41.5497ZM37.0282 44.3506V42.1117L34.6624 37.6431H36.5659L37.8984 40.3261L39.2217 37.6431H41.1343L38.7685 42.1117V44.3506H37.0282ZM45.9417 44.3506V37.6431H50.8002V39.1477H47.6821V40.2354H50.3923V41.6676H47.6821V42.8459H50.8455V44.3506H45.9417ZM54.691 44.3506V39.1477H52.6606V37.6431H58.4617V39.1477H56.4313V44.3506H54.691ZM60.3195 44.3506V37.6431H65.178V39.1477H62.0599V40.2354H64.7701V41.6676H62.0599V42.8459H65.2233V44.3506H60.3195ZM67.265 44.3506V37.6431H70.2199C70.7215 37.6431 71.1626 37.7246 71.5433 37.8878C71.924 38.0509 72.2201 38.2927 72.4316 38.6129C72.6431 38.9272 72.7489 39.3169 72.7489 39.7822C72.7489 40.2354 72.6431 40.6222 72.4316 40.9424C72.2262 41.2567 71.9422 41.4954 71.5796 41.6585L72.8848 44.3506H70.9723L69.8393 41.9214H69.0053V44.3506H67.265ZM70.1928 39.1386H69.0053V40.5345H70.1928C70.4345 40.5345 70.6309 40.4741 70.7819 40.3533C70.933 40.2324 71.0085 40.0602 71.0085 39.8366C71.0085 39.607 70.933 39.4347 70.7819 39.3199C70.6309 39.1991 70.4345 39.1386 70.1928 39.1386ZM74.9806 44.3506V37.6431H76.585L79.0595 41.3685V37.6431H80.7817V44.3506H79.1592L76.7028 40.8155V44.3506H74.9806ZM82.5018 44.3506L84.7316 37.6431H87.0792L89.309 44.3506H87.4962L87.1427 43.2266H84.6681L84.3146 44.3506H82.5018ZM85.1304 41.7401H86.6804L85.9099 39.2655L85.1304 41.7401ZM91.0314 44.3506V37.6431H92.7717V42.8459H95.9351V44.3506H91.0314ZM101.063 44.3506V37.6431H105.921V39.1477H102.803V40.598H105.513V42.0392H102.803V44.3506H101.063ZM110.819 44.4412C110.239 44.4412 109.731 44.3445 109.296 44.1512C108.861 43.9518 108.499 43.6889 108.209 43.3626C107.918 43.0302 107.698 42.6586 107.547 42.2477C107.402 41.8368 107.329 41.4168 107.329 40.9878C107.329 40.5587 107.402 40.1418 107.547 39.7369C107.698 39.326 107.918 38.9574 108.209 38.6311C108.499 38.3047 108.861 38.0449 109.296 37.8515C109.731 37.6521 110.239 37.5524 110.819 37.5524C111.399 37.5524 111.907 37.6521 112.342 37.8515C112.777 38.0449 113.139 38.3047 113.43 38.6311C113.726 38.9574 113.946 39.326 114.091 39.7369C114.236 40.1418 114.309 40.5587 114.309 40.9878C114.309 41.4168 114.236 41.8368 114.091 42.2477C113.946 42.6586 113.726 43.0302 113.43 43.3626C113.139 43.6889 112.777 43.9518 112.342 44.1512C111.907 44.3445 111.399 44.4412 110.819 44.4412ZM110.819 42.8912C111.194 42.8912 111.505 42.8006 111.753 42.6193C112 42.432 112.185 42.1933 112.306 41.9032C112.432 41.6071 112.496 41.302 112.496 40.9878C112.496 40.6735 112.432 40.3714 112.306 40.0813C112.185 39.7913 112 39.5556 111.753 39.3743C111.505 39.187 111.194 39.0933 110.819 39.0933C110.45 39.0933 110.142 39.187 109.894 39.3743C109.647 39.5556 109.459 39.7913 109.332 40.0813C109.212 40.3714 109.151 40.6735 109.151 40.9878C109.151 41.302 109.212 41.6071 109.332 41.9032C109.459 42.1933 109.647 42.432 109.894 42.6193C110.142 42.8006 110.45 42.8912 110.819 42.8912ZM118.959 44.4412C118.615 44.4412 118.274 44.3929 117.935 44.2962C117.597 44.1995 117.292 44.0424 117.02 43.8249C116.748 43.6073 116.53 43.3203 116.367 42.9638C116.204 42.6012 116.122 42.157 116.122 41.6313V37.6431H117.863V41.6313C117.863 41.9576 117.95 42.2356 118.125 42.4652C118.301 42.6949 118.579 42.8097 118.959 42.8097C119.34 42.8097 119.618 42.6949 119.793 42.4652C119.969 42.2356 120.056 41.9576 120.056 41.6313V37.6431H121.797V41.6313C121.797 42.157 121.715 42.6012 121.552 42.9638C121.389 43.3203 121.171 43.6073 120.899 43.8249C120.627 44.0424 120.322 44.1995 119.984 44.2962C119.645 44.3929 119.304 44.4412 118.959 44.4412ZM123.882 44.3506V37.6431H125.487L127.961 41.3685V37.6431H129.683V44.3506H128.061L125.604 40.8155V44.3506H123.882ZM131.766 44.3506V37.6431H134.54C135.095 37.6431 135.582 37.7397 135.999 37.9331C136.422 38.1204 136.772 38.3742 137.05 38.6945C137.334 39.0148 137.546 39.3743 137.685 39.7731C137.824 40.172 137.893 40.5799 137.893 40.9968C137.893 41.4138 137.824 41.8217 137.685 42.2205C137.546 42.6193 137.334 42.9789 137.05 43.2991C136.772 43.6194 136.422 43.8762 135.999 44.0696C135.582 44.2569 135.095 44.3506 134.54 44.3506H131.766ZM134.458 39.1658H133.506V42.8006H134.458C134.851 42.8006 135.171 42.713 135.419 42.5377C135.667 42.3565 135.848 42.1268 135.963 41.8489C136.083 41.5709 136.144 41.2808 136.144 40.9787C136.144 40.6765 136.083 40.3895 135.963 40.1176C135.848 39.8396 135.667 39.613 135.419 39.4378C135.171 39.2565 134.851 39.1658 134.458 39.1658ZM138.977 44.3506L141.207 37.6431H143.555L145.785 44.3506H143.972L143.618 43.2266H141.144L140.79 44.3506H138.977ZM141.606 41.7401H143.156L142.385 39.2655L141.606 41.7401ZM148.31 44.3506V39.1477H146.28V37.6431H152.081V39.1477H150.051V44.3506H148.31ZM153.939 44.3506V37.6431H155.679V44.3506H153.939ZM160.978 44.4412C160.397 44.4412 159.89 44.3445 159.455 44.1512C159.02 43.9518 158.657 43.6889 158.367 43.3626C158.077 43.0302 157.856 42.6586 157.705 42.2477C157.56 41.8368 157.488 41.4168 157.488 40.9878C157.488 40.5587 157.56 40.1418 157.705 39.7369C157.856 39.326 158.077 38.9574 158.367 38.6311C158.657 38.3047 159.02 38.0449 159.455 37.8515C159.89 37.6521 160.397 37.5524 160.978 37.5524C161.558 37.5524 162.065 37.6521 162.5 37.8515C162.935 38.0449 163.298 38.3047 163.588 38.6311C163.884 38.9574 164.105 39.326 164.25 39.7369C164.395 40.1418 164.467 40.5587 164.467 40.9878C164.467 41.4168 164.395 41.8368 164.25 42.2477C164.105 42.6586 163.884 43.0302 163.588 43.3626C163.298 43.6889 162.935 43.9518 162.5 44.1512C162.065 44.3445 161.558 44.4412 160.978 44.4412ZM160.978 42.8912C161.352 42.8912 161.663 42.8006 161.911 42.6193C162.159 42.432 162.343 42.1933 162.464 41.9032C162.591 41.6071 162.654 41.302 162.654 40.9878C162.654 40.6735 162.591 40.3714 162.464 40.0813C162.343 39.7913 162.159 39.5556 161.911 39.3743C161.663 39.187 161.352 39.0933 160.978 39.0933C160.609 39.0933 160.301 39.187 160.053 39.3743C159.805 39.5556 159.618 39.7913 159.491 40.0813C159.37 40.3714 159.31 40.6735 159.31 40.9878C159.31 41.302 159.37 41.6071 159.491 41.9032C159.618 42.1933 159.805 42.432 160.053 42.6193C160.301 42.8006 160.609 42.8912 160.978 42.8912ZM166.281 44.3506V37.6431H167.885L170.36 41.3685V37.6431H172.082V44.3506H170.459L168.003 40.8155V44.3506H166.281Z" fill="#0A0A0A"/>
</svg>
